<?xml version="1.0" encoding="utf-8"?>
<!-- Generator: Adobe Illustrator 16.0.3, SVG Export Plug-In . SVG Version: 6.00 Build 0)  -->
<!DOCTYPE svg PUBLIC "-//W3C//DTD SVG 1.1//EN" "http://www.w3.org/Graphics/SVG/1.1/DTD/svg11.dtd">
<svg version="1.1" id="artwork" xmlns="http://www.w3.org/2000/svg" xmlns:xlink="http://www.w3.org/1999/xlink" x="0px" y="0px"
	 width="100px" height="99.2px" viewBox="0 0 100 99.2" enable-background="new 0 0 100 99.2" xml:space="preserve">
<path d="M68.2,49.7l27.2-27.2c5.2-5.2,5.2-13.6,0-18.5c-5.2-5.2-13.6-5.2-18.5,0L49.7,31.2L22.4,3.9c-5.2-5.2-13.6-5.2-18.5,0
	s-5.2,13.6,0,18.5l27.2,27.2L3.9,76.9c-5.2,5.2-5.2,13.6,0,18.5c2.4,2.4,5.9,3.8,9.4,3.8s6.6-1.4,9.4-3.8L50,68.2l27.2,27.2
	c2.4,2.4,5.9,3.8,9.4,3.8c3.5,0,6.6-1.4,9.4-3.8c5.2-5.2,5.2-13.6,0-18.5L68.2,49.7z"/>
</svg>
